<svg width="856" height="560" viewBox="0 0 856 560" fill="none" xmlns="http://www.w3.org/2000/svg">
<g clip-path="url(#clip0_594_351)">
<path d="M116.807 55.4589L117.678 120.042C117.794 128.398 116.981 135.825 115.241 142.324C113.5 148.824 110.367 154.22 105.84 158.514C101.43 162.923 95.1636 166.231 87.0399 168.436C78.9163 170.758 68.4714 171.918 55.7057 171.918C53.2686 171.918 50.0772 171.802 46.1313 171.57C42.3016 171.453 38.1237 171.163 33.5977 170.7C29.1877 170.351 24.8356 169.828 20.5417 169.133C16.2477 168.552 12.534 167.798 9.40064 166.87L13.2304 119.172C20.0775 121.492 25.9962 122.943 30.9865 123.524C36.0928 124.105 40.8509 124.394 45.2609 124.394C50.9475 124.394 56.0538 123.698 60.58 122.306C65.222 120.797 68.0653 118.418 69.1098 115.168C68.0653 115.633 66.8467 116.096 65.4541 116.561C64.0614 117.025 62.0306 117.431 59.3613 117.779C56.8082 118.128 53.2685 118.302 48.7425 118.302C33.5396 118.302 22.1084 115.11 14.4489 108.728C6.9055 102.344 3.13379 93.1762 3.13379 81.2231V69.2109C3.13379 56.6775 6.03511 46.9291 11.8377 39.9659C17.6403 32.8867 27.7369 29.3471 42.1275 29.3471C50.3672 29.3471 56.8082 30.8557 61.4503 33.8732C66.0924 36.7745 68.6456 41.5907 69.1098 48.3217H70.6766C70.6766 45.6525 70.7345 42.9833 70.8506 40.3141C71.0827 37.5288 71.3148 34.8016 71.5469 32.1323H118.374C117.91 36.0782 117.504 40.0239 117.155 43.9697C116.923 47.7995 116.807 51.6292 116.807 55.4589ZM62.8429 88.7079V68.3409C62.8429 67.8763 62.6108 67.0064 62.1466 65.7299C61.7985 64.337 60.4638 63.6407 58.1428 63.6407C55.8217 63.6407 54.4291 64.337 53.9648 65.7299C53.6167 67.0064 53.4426 67.8763 53.4426 68.3409V88.7079C53.4426 89.0563 53.6167 89.9263 53.9648 91.3189C54.4291 92.7116 55.8217 93.4085 58.1428 93.4085C60.4638 93.4085 61.7985 92.7116 62.1466 91.3189C62.6108 89.9263 62.8429 89.0563 62.8429 88.7079ZM207.039 29.3471C214.003 29.3471 219.63 30.5076 223.924 32.8287C228.218 35.0337 231.468 38.1091 233.673 42.0548C235.878 46.0007 237.387 50.5267 238.199 55.633C239.011 60.6233 239.476 65.9041 239.592 71.4746V140.061H187.89V75.4784C187.89 75.1299 187.659 74.2599 187.194 72.8673C186.846 71.4746 185.511 70.7778 183.19 70.7778C180.868 70.7778 179.477 71.4746 179.012 72.8673C178.664 74.2599 178.49 75.1299 178.49 75.4784V140.061H125.57L124.874 0.101807H178.141V50.7588H179.708C180.521 43.5635 183.539 38.2251 188.761 34.7435C194.099 31.1459 200.192 29.3471 207.039 29.3471ZM352.089 140.061H307.525C307.06 137.857 306.655 135.593 306.306 133.272C306.074 130.836 305.958 127.934 305.958 124.568H304.391C304.391 127.005 303.521 129.675 301.78 132.576C300.155 135.361 297.486 137.799 293.773 139.887C290.059 141.861 285.068 142.847 278.802 142.847C270.214 142.847 263.425 141.396 258.434 138.495C253.444 135.593 249.905 131.88 247.816 127.353C245.727 122.712 244.682 117.721 244.682 112.383V104.027C244.682 92.8858 248.164 84.7623 255.127 79.6563C262.09 74.5492 273.869 71.9962 290.465 71.9962C292.787 71.9962 295.107 72.0543 297.428 72.1704C299.865 72.2865 302.419 72.4608 305.088 72.6931C305.319 70.7197 304.972 69.269 304.043 68.3409C303.231 67.4129 302.187 66.8902 300.91 66.7741C298.704 66.5418 296.558 66.3675 294.468 66.2514C292.496 66.0202 290.523 65.9041 288.551 65.9041C279.266 65.9041 271.432 67.0064 265.05 69.2109C258.782 71.4166 253.851 73.563 250.252 75.6526L247.12 38.051C257.332 35.0337 266.848 32.8287 275.668 31.436C284.604 30.0434 292.787 29.3471 300.213 29.3471C316.229 29.3471 328.589 32.5966 337.292 39.0956C346.112 45.4784 350.523 54.8207 350.523 67.1225V119.869C350.871 126.716 351.393 133.447 352.089 140.061ZM301.606 107.335V96.368C301.606 95.9034 301.374 95.0334 300.91 93.7569C300.562 92.3643 299.227 91.6674 296.906 91.6674C294.585 91.6674 293.192 92.3643 292.729 93.7569C292.38 95.0334 292.206 95.9034 292.206 96.368V107.335C292.206 107.682 292.38 108.553 292.729 109.946C293.192 111.339 294.585 112.034 296.906 112.034C299.227 112.034 300.562 111.339 300.91 109.946C301.374 108.553 301.606 107.682 301.606 107.335ZM432.63 29.3471C441.335 29.3471 448.182 30.4496 453.172 32.6546C458.163 34.8596 461.818 37.935 464.138 41.8808C466.576 45.7105 468.142 50.1786 468.839 55.2849C469.535 60.3912 469.883 65.846 469.883 71.6489V140.061L418.878 140.236V75.6526C418.878 75.3041 418.646 74.433 418.182 73.0415C417.834 71.6489 416.499 70.952 414.178 70.952C411.857 70.952 410.464 71.6489 410.001 73.0415C409.652 74.433 409.478 75.3041 409.478 75.6526V140.061H357.95V70.082C357.95 66.3675 357.95 60.9714 357.95 53.8923C358.066 46.813 357.66 39.5597 356.732 32.1323H400.948C402.341 39.4437 403.038 46.9872 403.038 54.7626H404.603C404.603 50.2366 405.532 46.0587 407.389 42.2289C409.246 38.3992 412.205 35.3238 416.267 33.0028C420.445 30.5656 425.899 29.3471 432.63 29.3471ZM582.268 140.061H537.704C537.239 137.857 536.834 135.593 536.485 133.272C536.253 130.836 536.137 127.934 536.137 124.568H534.57C534.57 127.005 533.7 129.675 531.959 132.576C530.334 135.361 527.665 137.799 523.951 139.887C520.238 141.861 515.247 142.847 508.981 142.847C500.393 142.847 493.604 141.396 488.613 138.495C483.623 135.593 480.084 131.88 477.994 127.353C475.906 122.712 474.861 117.721 474.861 112.383V104.027C474.861 92.8858 478.343 84.7623 485.306 79.6563C492.269 74.5492 504.048 71.9962 520.644 71.9962C522.965 71.9962 525.286 72.0543 527.607 72.1704C530.044 72.2865 532.598 72.4608 535.267 72.6931C535.499 70.7197 535.151 69.269 534.221 68.3409C533.41 67.4129 532.365 66.8902 531.089 66.7741C528.883 66.5418 526.737 66.3675 524.647 66.2514C522.675 66.0202 520.702 65.9041 518.729 65.9041C509.444 65.9041 501.611 67.0064 495.229 69.2109C488.961 71.4166 484.029 73.563 480.431 75.6526L477.299 38.051C487.51 35.0337 497.027 32.8287 505.847 31.436C514.784 30.0434 522.965 29.3471 530.392 29.3471C546.408 29.3471 558.768 32.5966 567.471 39.0956C576.291 45.4784 580.701 54.8207 580.701 67.1225V119.869C581.05 126.716 581.571 133.447 582.268 140.061ZM531.785 107.335V96.368C531.785 95.9034 531.552 95.0334 531.089 93.7569C530.74 92.3643 529.406 91.6674 527.085 91.6674C524.763 91.6674 523.371 92.3643 522.907 93.7569C522.559 95.0334 522.385 95.9034 522.385 96.368V107.335C522.385 107.682 522.559 108.553 522.907 109.946C523.371 111.339 524.763 112.034 527.085 112.034C529.406 112.034 530.74 111.339 531.089 109.946C531.552 108.553 531.785 107.682 531.785 107.335Z" fill="#E50914"/>
<path d="M637.272 113.601V127.527C637.272 131.938 635.473 135.709 631.876 138.843C628.279 141.976 622.534 143.542 614.642 143.542C606.867 143.542 601.122 141.918 597.408 138.668C593.695 135.419 591.838 131.589 591.838 127.179V113.427C591.838 109.017 593.695 105.187 597.408 101.938C601.122 98.6884 606.867 97.0635 614.642 97.0635C622.534 97.0635 628.279 98.6303 631.876 101.764C635.473 104.897 637.272 108.843 637.272 113.601Z" fill="#E50914"/>
<path d="M761.2 166.261H340.246C288.679 166.261 246.876 208.064 246.876 259.63C246.876 311.197 288.679 353 340.246 353H761.2C812.767 353 854.57 311.197 854.57 259.63C854.57 208.064 812.767 166.261 761.2 166.261Z" fill="#F9B300"/>
<path d="M401.731 255.924C397.259 253.223 392.49 251.239 387.426 249.973C382.362 248.624 376.285 247.694 369.195 247.188C368.604 247.103 368.013 247.061 367.422 247.061C366.917 246.977 366.41 246.935 365.903 246.935C364.131 246.935 363.244 247.652 363.244 249.087C363.244 249.931 363.709 250.522 364.637 250.86C365.65 251.113 367.001 251.324 368.688 251.493C371.98 251.915 375.441 252.421 379.07 253.012C382.699 253.519 386.244 254.321 389.704 255.417C393.165 256.515 396.288 258.118 399.074 260.228C401.943 262.338 404.18 265.124 405.783 268.584C407.472 272.045 408.315 276.391 408.315 281.625C408.315 287.448 406.965 292.343 404.264 296.311C401.563 300.192 397.892 303.316 393.249 305.679C388.692 307.957 383.459 309.604 377.551 310.616C371.728 311.63 365.692 312.135 359.447 312.135C352.188 312.219 344.971 311.798 337.797 310.87C330.708 310.025 324.42 308.929 318.934 307.578L322.478 263.014C324.42 264.448 326.741 266.009 329.442 267.698C332.143 269.301 335.814 270.778 340.456 272.129C345.098 273.479 351.217 274.535 358.813 275.295C359.236 275.379 359.615 275.421 359.953 275.421C360.375 275.421 360.755 275.421 361.092 275.421C362.021 275.421 362.696 275.294 363.118 275.041C363.625 274.788 363.877 274.239 363.877 273.395C363.877 272.467 363.456 271.876 362.612 271.622C361.852 271.369 360.629 271.117 358.94 270.863C354.383 270.357 349.825 269.64 345.267 268.71C340.793 267.782 336.7 266.348 332.986 264.406C329.273 262.465 326.277 259.764 323.997 256.304C321.803 252.844 320.707 248.328 320.707 242.757C320.707 234.824 322.563 228.536 326.277 223.893C330.075 219.166 335.181 215.791 341.595 213.765C348.011 211.655 355.184 210.6 363.118 210.6C369.786 210.6 376.749 211.233 384.007 212.499C391.267 213.681 398.441 215.327 405.53 217.437L401.731 255.924ZM463.579 262.761L504.978 265.166V282.637C504.978 291.752 500.842 298.884 492.572 304.033C484.385 309.181 472.949 311.756 458.263 311.756C449.737 311.756 442.184 310.616 435.6 308.338C429.017 306.059 423.742 302.767 419.775 298.463C415.808 294.074 413.444 288.798 412.685 282.637C412.432 280.358 412.221 277.362 412.052 273.648C411.883 269.85 411.799 265.715 411.799 261.242C411.799 256.768 411.883 252.674 412.052 248.961C412.221 245.247 412.432 242.25 412.685 239.972C413.444 233.726 415.808 228.451 419.775 224.147C423.742 219.757 429.017 216.423 435.6 214.145C442.184 211.782 449.737 210.6 458.263 210.6C467.884 210.6 476.155 211.782 483.076 214.145C490.082 216.509 495.484 219.884 499.281 224.273C503.08 228.578 504.978 233.81 504.978 239.972V251.493L463.579 255.924V245.669C463.579 243.39 462.441 242.25 460.161 242.25C457.882 242.25 456.743 243.39 456.743 245.669V276.433C456.743 278.713 457.882 279.852 460.161 279.852C462.441 279.852 463.579 278.713 463.579 276.433V262.761ZM601.888 283.777C600.538 292.638 595.854 299.601 587.835 304.666C579.818 309.646 569.31 312.135 556.311 312.135C543.313 312.135 532.805 309.646 524.787 304.666C516.854 299.687 512.169 292.808 510.734 284.03C510.396 281.667 510.101 278.501 509.849 274.535C509.679 270.483 509.595 266.137 509.595 261.494C509.595 257.022 509.679 252.886 509.849 249.087C510.101 245.205 510.396 242.166 510.734 239.972C512.169 230.688 516.896 223.472 524.914 218.323C532.932 213.174 543.398 210.6 556.311 210.6C569.31 210.6 579.818 213.174 587.835 218.323C595.854 223.386 600.538 230.434 601.888 239.465C602.226 241.66 602.479 244.699 602.648 248.58C602.902 252.379 603.028 256.557 603.028 261.114C603.028 265.925 602.902 270.315 602.648 274.281C602.479 278.248 602.226 281.413 601.888 283.777ZM559.73 277.952V244.783C559.73 242.504 558.59 241.364 556.311 241.364C554.033 241.364 552.893 242.504 552.893 244.783V277.952C552.893 280.232 554.033 281.371 556.311 281.371C558.59 281.371 559.73 280.232 559.73 277.952ZM648.278 310.109H608.397V212.626H666.381C671.783 212.626 676.721 213.596 681.195 215.537C685.752 217.479 689.381 220.601 692.082 224.907C694.783 229.211 696.133 234.95 696.133 242.124C696.133 244.15 695.965 246.344 695.627 248.708C695.374 251.071 694.741 253.434 693.729 255.798C692.715 258.076 691.154 260.144 689.044 262.001C687.018 263.773 684.233 265.166 680.688 266.179L700.692 310.109H656.254L649.417 284.03H648.278V310.109ZM657.013 243.77H644.86V250.606H657.393C658.069 250.606 658.786 250.395 659.546 249.973C660.389 249.552 660.811 248.666 660.811 247.315C660.811 245.88 660.347 244.951 659.418 244.53C658.49 244.023 657.688 243.77 657.013 243.77ZM743.601 271.876V277.066H782.341V310.109H703.721V212.626H780.062V241.112H743.601V246.302H776.644V271.876H743.601Z" fill="white"/>
</g>
<path d="M418.541 447.669C413.928 447.669 409.716 444.861 406.841 439.846V447H400.49V400.201H406.908V420.391C409.783 415.578 414.062 412.77 418.675 412.77C426.43 412.77 430.776 420.124 430.776 430.152C430.776 440.248 426.363 447.669 418.541 447.669ZM416.669 441.986C421.215 441.986 424.291 437.974 424.291 430.152C424.291 422.464 421.349 418.452 416.803 418.452C412.725 418.452 406.641 422.865 406.641 430.219C406.641 437.506 412.524 441.986 416.669 441.986ZM436.945 458.366V452.616H444.166C447.642 452.616 449.046 452.148 450.183 449.206L450.851 447.535L437.948 413.572H444.834L454.06 439.98L463.22 413.572H469.972L455.464 451.88C453.592 456.761 450.918 458.366 445.369 458.366H436.945Z" fill="#6B6B6B"/>
<path d="M692.887 398.455C669.396 385.42 638.141 380.601 609.744 384.11C571.476 388.839 545.648 405.766 529.557 427.474C513.592 449.012 507.299 475.095 507.299 498.51C507.299 523.464 522.787 540.198 545.341 549.644C567.488 558.921 596.305 561.185 624.195 558.365C661.829 554.56 686.841 542.478 703.036 524.904C719.05 507.527 725.849 485.409 728.734 462.415C732.39 433.272 716.662 411.647 692.887 398.455Z" fill="#2FB551"/>
<path d="M563.592 428.128C571.981 428.128 578.85 429.524 584.128 432.394H584.127C589.356 435.149 593.213 438.849 595.637 443.51C598.032 448.116 599.226 453.135 599.226 458.548C599.226 463.34 598.118 468.072 595.924 472.738L595.925 472.739C593.793 477.373 589.981 481.986 584.565 486.589L572.235 497.123H599.895V516.378H536.648V501.136L537.005 500.836L556.524 484.391L558.234 482.923C562.089 479.572 565.04 476.715 567.104 474.347C569.472 471.54 570.995 469.104 571.74 467.033L571.746 467.016L571.753 467C572.605 464.87 573.019 462.857 573.019 460.954C573.019 456.702 571.751 453.737 569.383 451.843L569.369 451.831L569.354 451.819C567.017 449.804 563.544 448.72 558.778 448.719C555.837 448.719 553.034 449.109 550.366 449.884C547.692 450.66 545.192 451.78 542.865 453.245L541.831 453.896L541.395 452.755L535.11 436.308L534.816 435.539L535.514 435.1C539.455 432.626 543.933 430.847 548.937 429.756L548.94 429.755C553.995 428.672 558.879 428.128 563.592 428.128ZM653.652 429.465V516.378H629.049V455.419L616.49 462.237L615.579 462.731L615.115 461.803L606.022 443.619L605.562 442.698L606.494 442.262L633.638 429.559L633.84 429.465H653.652Z" fill="white" stroke="black" stroke-width="2.00568"/>
<path d="M684.81 470.319C681.699 470.319 678.711 469.869 675.845 468.969C673.021 468.027 670.769 466.84 669.091 465.407L672.468 457.854C673.328 458.509 674.392 459.103 675.661 459.635C676.93 460.167 678.302 460.597 679.775 460.925C681.249 461.252 682.661 461.416 684.012 461.416C685.977 461.416 687.328 461.109 688.065 460.495C688.802 459.881 689.17 459.164 689.17 458.346C689.17 457.527 688.863 456.872 688.249 456.381C687.676 455.889 686.734 455.398 685.424 454.907L680.266 453.003C677.073 451.816 674.494 450.383 672.529 448.705C670.605 446.986 669.643 444.632 669.643 441.643C669.643 438.164 670.994 435.442 673.696 433.477C676.439 431.471 680.328 430.468 685.363 430.468C688.638 430.468 691.463 430.877 693.837 431.696C696.252 432.474 698.217 433.518 699.732 434.828L696.6 442.012C695.74 441.521 694.676 441.07 693.407 440.661C692.138 440.252 690.808 439.945 689.416 439.74C688.065 439.494 686.775 439.371 685.547 439.371C683.869 439.371 682.641 439.597 681.863 440.047C681.126 440.497 680.758 441.091 680.758 441.828C680.758 442.442 681.044 443.015 681.617 443.547C682.19 444.038 683.152 444.529 684.503 445.021L688.986 446.679C693.121 448.193 696.027 449.81 697.705 451.53C699.425 453.208 700.284 455.378 700.284 458.038C700.284 461.6 698.954 464.547 696.293 466.881C693.673 469.173 689.846 470.319 684.81 470.319ZM714.708 469.767V438.88H704.576V430.713H735.278V438.88H725.147V469.767H714.708Z" fill="black"/>
<path d="M691.413 431.137C694.23 431.137 696.625 431.54 698.614 432.326L698.621 432.328L698.629 432.331C700.513 433.026 702.049 433.931 703.256 435.034L700.946 441.104C700.291 440.742 699.546 440.408 698.714 440.101C697.56 439.674 696.352 439.355 695.092 439.143C693.872 438.89 692.7 438.762 691.575 438.762C690.06 438.762 688.818 438.989 687.968 439.553L687.954 439.562C687.142 440.131 686.697 440.926 686.697 441.902C686.697 442.722 687.038 443.456 687.635 444.091L687.644 444.101L687.653 444.11C688.248 444.694 689.187 445.227 690.396 445.731V445.732L694.336 447.4L694.338 447.401C697.936 448.911 700.377 450.489 701.751 452.102L701.761 452.113C703.143 453.658 703.857 455.674 703.857 458.22C703.857 461.643 702.747 464.435 700.545 466.647C698.408 468.79 695.24 469.913 690.928 469.913C688.273 469.913 685.728 469.474 683.287 468.597C681.047 467.741 679.259 466.691 677.9 465.459L680.375 459.119C681.027 459.594 681.769 460.031 682.598 460.43C683.756 460.986 685.003 461.433 686.338 461.772C687.68 462.114 688.977 462.288 690.226 462.288C691.984 462.288 693.403 461.983 694.249 461.176C695.016 460.444 695.428 459.552 695.428 458.528C695.428 457.543 695.096 456.695 694.4 456.058C693.808 455.483 692.897 454.954 691.73 454.453L691.728 454.452L687.194 452.535C684.45 451.366 682.261 449.968 680.608 448.353C679.071 446.776 678.268 444.592 678.268 441.717C678.268 438.383 679.388 435.843 681.588 434.01L681.59 434.009C683.839 432.125 687.082 431.137 691.413 431.137ZM734.609 431.384V438.267H725.706V469.356H717.869V438.267H708.966V431.384H734.609Z" fill="white" stroke="black" stroke-width="1.33712"/>
<path d="M668.422 515.375L672.183 475.512H684.718L692.929 497.763L693.117 498.515L693.242 497.763L701.892 475.512H714.427L717.561 515.375H706.279L705.026 491.244L704.838 490.179H704.712L704.399 491.244L696.877 511.614H689.356L681.772 491.244L681.521 490.179H681.333L681.145 491.244L679.704 515.375H668.422ZM723.218 515.375V475.512H751.925V483.66H733.874V491.056H749.48V499.204H733.874V507.227H752.301V515.375H723.218ZM757.924 515.375V477.706C759.887 476.87 762.144 476.264 764.693 475.888C767.241 475.47 769.728 475.261 772.151 475.261C779.297 475.261 784.729 476.995 788.447 480.464C792.166 483.89 794.026 488.904 794.026 495.506C794.026 500.186 793.127 503.989 791.331 506.914C789.576 509.838 787.11 511.99 783.935 513.369C780.759 514.707 777.103 515.375 772.966 515.375H757.924ZM768.704 507.227H772.402C775.578 507.227 778.064 506.266 779.861 504.344C781.699 502.422 782.618 499.476 782.618 495.506C782.618 491.662 781.741 488.779 779.986 486.857C778.231 484.893 775.682 483.911 772.339 483.911C771.754 483.911 771.149 483.953 770.522 484.036C769.895 484.078 769.289 484.182 768.704 484.35V507.227ZM799.668 515.375V475.512H810.323V515.375H799.668ZM815.934 515.375L829.723 475.449H842.447L855.171 515.375H843.701L841.319 507.478H830.037L827.655 515.375H815.934ZM832.419 498.703H839.564L836.242 487.233H835.991L832.419 498.703Z" fill="black"/>
<path d="M775.893 475.93C782.588 475.93 787.567 477.635 790.943 480.941L790.946 480.944C794.318 484.206 796.055 489.022 796.055 495.506C796.055 500.111 795.212 503.785 793.58 506.576L793.576 506.582C792.074 509.211 790.009 511.181 787.372 512.505L786.844 512.757C783.919 514.05 780.533 514.707 776.669 514.707H763.013V478.148C764.727 477.428 766.684 476.891 768.893 476.548L768.903 476.547C771.295 476.135 773.625 475.93 775.893 475.93ZM842.338 476.118L854.049 514.707H844.531L842.402 507.293L842.264 506.809H830.513L830.373 507.293L828.244 514.707H818.51L831.201 476.118H842.338ZM811.574 476.18V514.707H802.765V476.18H811.574ZM755.963 476.18V482.992H738.773V491.724H753.635V498.536H738.773V507.895H756.321V514.707H729.964V476.18H755.963ZM692.158 476.18L699.809 497.951L699.979 498.67L701.29 498.62L701.398 497.932L709.452 476.18H720.303L723.188 514.707H713.801L712.638 491.212L712.636 491.172L712.63 491.133L712.45 490.068L712.356 489.51H711.165L711.028 489.999L710.733 491.048L703.737 510.946H697.521L690.468 491.053L690.24 490.033L690.123 489.51H688.843L688.749 490.068L688.57 491.133L688.564 491.17L688.562 491.206L687.226 514.707H677.845L681.306 476.18H692.158ZM776.072 483.242C775.482 483.242 774.873 483.286 774.248 483.374C773.62 483.421 773.009 483.532 772.418 483.71L771.941 483.852V507.895H776.132C779.31 507.895 781.873 506.878 783.733 504.789L783.732 504.788C785.638 502.692 786.529 499.554 786.529 495.506C786.529 491.703 785.73 488.703 784.026 486.617L783.858 486.418C782.031 484.274 779.398 483.242 776.072 483.242ZM836.045 487.043L832.644 498.512L832.389 499.372H840.967L840.733 498.525L837.569 487.055L837.435 486.564H836.188L836.045 487.043Z" fill="white" stroke="black" stroke-width="1.33712"/>
<defs>
<clipPath id="clip0_594_351">
<rect width="855.171" height="353" fill="white"/>
</clipPath>
</defs>
</svg>
