<svg width="1769" height="560" viewBox="0 0 1769 560" fill="none" xmlns="http://www.w3.org/2000/svg">
<path d="M58.1252 173.125C61.2502 167.813 63.1252 161.875 63.7502 155.938C64.6877 149.688 64.6877 143.75 64.6877 137.5C64.6877 107.813 64.6877 78.125 64.6877 48.4375C58.7502 54.0625 54.0627 60.9375 50.9377 68.4375C45.0002 81.5625 43.7502 96.25 44.0627 110.625C44.3752 125.625 45.9377 140.625 48.4377 155.313C49.6877 163.125 51.5627 171.25 53.7502 178.75C55.3127 177.188 56.8752 175.313 58.1252 173.125ZM178.438 180.313C178.438 179.063 178.438 177.5 178.125 176.25L130.625 200.312C130.625 213.125 130.625 225.625 130.625 238.438C131.25 238.438 131.875 238.125 132.5 238.125C145.625 235.312 157.5 227.813 165.625 217.188C173.75 206.875 178.125 193.438 178.438 180.313ZM130.625 167.5V190.313L177.188 166.563C175.938 160 173.75 153.438 170.625 147.188L130.625 167.5ZM130.625 157.5L166.25 139.375C165 137.5 163.438 135.625 161.875 133.75C153.75 123.75 142.813 115.938 130.625 111.25C130.625 126.563 130.625 142.188 130.625 157.5ZM121.563 239.375C121.563 197.5 121.563 155.938 121.563 114.375L105 130.938V135.938C105 143.125 104.688 150.313 102.5 156.875C100.313 163.75 96.5627 169.688 91.8752 174.688C85.3127 181.875 76.8752 186.875 68.1252 190.313C65.3127 191.563 62.1877 192.5 59.3752 193.438C60.0002 195 60.6252 196.563 61.5627 197.813C68.1252 210.938 77.8127 222.812 90.3127 230.312C99.6877 236.25 110.625 239.375 121.563 239.375ZM105 31.25V93.125V118.125L161.563 62.1875C151.875 57.5 142.188 52.5 132.813 46.875C124.063 41.875 115.938 36.5625 107.813 30.625C107.5 30.625 107.5 30.625 107.188 30.625C106.563 30.9375 105.625 30.9375 105 31.25ZM158.125 78.125C178.438 82.5 196.875 95.625 207.5 113.438C218.75 132.5 221.25 156.875 214.688 178.125C208.438 197.5 195.625 214.687 179.375 226.875C164.688 238.125 147.188 245.937 129.063 249.062C110.625 252.187 91.5627 250.938 74.0627 245C52.1877 237.813 32.5002 223.125 19.6877 203.75C6.56272 184.687 0.000229706 161.25 0.93773 137.813C1.87523 111.563 12.5002 85.625 29.6877 65.3125C49.3752 42.5 78.1252 27.8125 108.125 24.375L138.75 0C148.438 7.81251 159.063 14.6875 170.313 20.625C177.813 24.375 185.625 27.8125 193.438 30.625L203.75 20.3125L210 26.875L158.125 78.125ZM299.263 205.938L309.263 215.937L318.95 209.375L324.575 216.25L285.825 243.438L253.638 215.937L241.763 223.438L236.138 216.25L257.388 202.813V60.625C257.388 59.0625 257.388 57.5 256.763 55.9375C256.45 54.375 255.825 52.8125 254.888 51.5625C253.638 49.6875 251.763 48.125 249.575 47.1875C247.075 45.9375 244.888 45 242.388 44.0625V39.6875L293.325 3.75001H299.263V119.688L338.013 83.125L371.138 110.625L383.638 100.625L388.95 107.5L375.513 118.438V200C375.513 208.438 375.513 216.875 373.95 225.312C372.388 233.75 369.575 241.875 365.2 249.062C358.638 259.375 349.263 267.5 338.013 272.5C326.45 277.812 313.325 279.688 300.825 277.813V270.312C307.388 268.75 313.95 265.313 318.95 260.625C324.575 255 328.325 248.125 330.825 240.625C334.888 228.437 335.2 215.625 335.2 202.813V128.125L316.45 112.5L299.263 128.75V205.938ZM542.488 208.75L544.05 215L500.613 244.688L476.55 220.937L443.738 244.688C430.925 243.125 418.425 236.875 410.3 226.875C404.675 220 401.238 210.937 401.55 201.875C401.863 195.937 404.05 190.313 407.175 185C409.988 180 414.05 175.625 418.425 171.875C424.675 166.25 431.55 161.875 439.05 157.813C437.488 157.188 435.925 156.563 434.363 155.938C427.175 152.5 420.613 147.813 416.238 141.25C414.05 137.813 412.488 133.75 412.175 129.375C411.863 125.625 412.8 121.875 414.363 118.125C415.925 114.688 418.425 111.875 421.238 109.063C424.363 106.563 428.113 104.375 431.863 102.5L466.238 84.6875L512.175 114.375L524.988 104.063L530.3 110.938L514.05 124.063V202.813L529.051 217.812L542.488 208.75ZM475.3 160.313C475.3 150.625 475.3 140.625 475.3 130.938L436.238 106.875C433.738 108.125 431.55 109.063 429.675 110.625C427.175 112.5 424.988 115 423.425 117.5C421.863 120.313 421.238 123.438 421.238 126.563C421.238 130.938 423.113 135 425.925 138.125C429.675 143.125 435.3 146.563 440.925 149.063C446.55 151.875 452.488 153.75 458.425 155.625C463.738 157.5 469.363 159.063 475.3 160.313ZM475.3 169.375C469.05 167.5 462.8 165.625 456.55 163.75C452.488 162.5 448.425 161.25 444.363 160C442.175 164.063 440.3 168.438 439.675 173.125C438.113 182.5 440.3 192.5 444.675 200.938C446.863 205 449.363 208.437 452.8 211.562C456.238 214.375 460.3 216.875 464.675 217.5C468.113 218.125 471.863 218.125 475.3 216.875C475.3 200.938 475.3 185.313 475.3 169.375ZM711.45 207.5L717.388 216.25L670.825 247.813L639.263 219.375L649.888 208.75V131.875L627.388 112.5L613.95 123.125V208.75L627.388 220.937L597.388 247.813L561.45 219.375L573.638 208.75V125.938L561.45 112.5L549.575 120L545.2 113.75L588.638 84.0625L612.7 110.938L646.763 84.0625L682.388 114.375L695.513 103.75L701.138 110.313L685.825 122.813V204.375L699.263 216.25L711.45 207.5ZM854.988 208.75L856.55 215L813.113 244.688L789.05 220.937L756.238 244.688C743.425 243.125 730.925 236.875 722.8 226.875C717.175 220 713.738 210.937 714.05 201.875C714.363 195.937 716.55 190.313 719.675 185C722.488 180 726.55 175.625 730.925 171.875C737.175 166.25 744.05 161.875 751.55 157.813C749.988 157.188 748.425 156.563 746.863 155.938C739.675 152.5 733.113 147.813 728.738 141.25C726.55 137.813 724.988 133.75 724.675 129.375C724.363 125.625 725.3 121.875 726.863 118.125C728.425 114.688 730.925 111.875 733.738 109.063C736.863 106.563 740.613 104.375 744.363 102.5L778.738 84.6875L824.675 114.375L837.488 104.063L842.8 110.938L826.55 124.063V202.813L841.55 217.812L854.988 208.75ZM787.8 160.313C787.8 150.625 787.8 140.625 787.8 130.938L748.738 106.875C746.238 108.125 744.05 109.063 742.175 110.625C739.675 112.5 737.488 115 735.925 117.5C734.363 120.313 733.738 123.438 733.738 126.563C733.738 130.938 735.613 135 738.425 138.125C742.175 143.125 747.8 146.563 753.425 149.063C759.05 151.875 764.988 153.75 770.925 155.625C776.238 157.5 781.863 159.063 787.8 160.313ZM787.8 169.375C781.55 167.5 775.3 165.625 769.05 163.75C764.988 162.5 760.925 161.25 756.863 160C754.675 164.063 752.8 168.438 752.175 173.125C750.613 182.5 752.8 192.5 757.175 200.938C759.363 205 761.863 208.437 765.3 211.562C768.738 214.375 772.8 216.875 777.175 217.5C780.613 218.125 784.363 218.125 787.8 216.875C787.8 200.938 787.8 185.313 787.8 169.375ZM916.45 122.188V206.875C917.7 207.187 918.638 207.812 919.575 208.125C930.2 212.187 940.513 216.875 950.825 221.563V128.75L930.2 111.875L916.45 122.188ZM880.2 202.5V124.375C880.513 122.5 880.2 120.313 879.263 118.125C878.325 116.25 877.075 114.688 875.2 113.438C873.325 111.875 870.825 110.938 868.013 110.938C865.513 110.938 863.013 111.563 860.825 113.125L857.7 108.125L895.513 82.8125C900.513 85.9375 904.888 90 908.638 94.375C911.763 97.8125 914.263 101.875 916.45 106.25V111.875L955.825 82.5L986.138 109.063L995.825 101.25L1001.14 108.125L989.575 117.5V204.688C979.888 210 970.513 215.937 961.45 222.187C953.325 228.125 945.2 234.375 937.7 240.625C930.825 236.875 923.95 233.125 916.45 230V244.375C916.45 246.875 916.45 249.062 916.763 251.562C917.388 253.75 918.013 256.25 919.263 258.125C920.2 260.312 921.763 261.875 923.638 263.438C925.825 265 928.325 265.937 930.825 266.25V270.625L886.138 297.5H880.2V218.75C874.888 217.5 869.575 216.875 864.263 215.937L880.2 202.5ZM1064.09 195.313L1100.03 219.375V129.375L1064.09 105.625V195.313ZM1013.16 222.187L1007.84 215.313L1023.78 202.5C1023.78 175.625 1023.78 148.75 1023.78 121.875L1094.09 81.5625L1139.09 115.938V201.25L1070.03 243.438C1055.34 232.813 1040.66 222.187 1026.28 211.562L1013.16 222.187ZM1218.06 205.938L1229.93 217.812L1238.99 210.313L1243.37 216.25L1204.62 243.438L1171.49 215L1159.62 222.5L1155.24 216.25L1176.18 202.813V60.625C1176.18 59.0625 1176.18 57.5 1175.56 55.9375C1175.24 54.375 1174.62 52.8125 1173.99 51.5625C1172.43 49.6875 1170.56 48.125 1168.37 47.1875C1165.87 45.9375 1163.68 45 1161.18 44.0625V39.6875L1212.12 3.75001H1218.06V205.938ZM1337.47 207.5L1344.97 213.438L1299.97 244.688L1269.97 217.812L1259.66 225.312L1254.97 219.375L1274.66 205.938V123.438L1264.03 110L1252.16 117.5L1247.47 111.563L1289.66 83.125L1313.41 111.563V205.938L1324.03 216.25L1337.47 207.5ZM1264.66 40.9375L1294.34 14.6875L1320.91 45L1291.22 71.25L1264.66 40.9375ZM1408.88 205.938L1423.57 220.625L1434.19 215L1438.57 220.937L1395.44 243.438L1362.63 215L1350.76 222.5L1346.07 216.25L1367.01 202.813V126.563C1367.01 125 1367.01 123.438 1366.69 121.875C1366.38 120.313 1365.76 119.063 1364.82 117.5C1363.57 115.625 1361.38 114.063 1359.19 113.125C1357.01 111.875 1354.51 111.563 1352.01 111.563V107.188L1402.94 55.9375H1408.88V91.875H1446.07L1431.38 109.063H1408.88V205.938ZM1588.63 208.75L1590.19 215L1546.76 244.688L1522.69 220.937L1489.88 244.688C1477.07 243.125 1464.57 236.875 1456.44 226.875C1450.82 220 1447.38 210.937 1447.69 201.875C1448.01 195.937 1450.19 190.313 1453.32 185C1456.13 180 1460.19 175.625 1464.57 171.875C1470.82 166.25 1477.69 161.875 1485.19 157.813C1483.63 157.188 1482.07 156.563 1480.51 155.938C1473.32 152.5 1466.76 147.813 1462.38 141.25C1460.19 137.813 1458.63 133.75 1458.32 129.375C1458.01 125.625 1458.94 121.875 1460.51 118.125C1462.07 114.688 1464.57 111.875 1467.38 109.063C1470.51 106.563 1474.26 104.375 1478.01 102.5L1512.38 84.6875L1558.32 114.375L1571.13 104.063L1576.44 110.938L1560.19 124.063V202.813L1575.19 217.812L1588.63 208.75ZM1521.44 160.313C1521.44 150.625 1521.44 140.625 1521.44 130.938L1482.38 106.875C1479.88 108.125 1477.69 109.063 1475.82 110.625C1473.32 112.5 1471.13 115 1469.57 117.5C1468.01 120.313 1467.38 123.438 1467.38 126.563C1467.38 130.938 1469.26 135 1472.07 138.125C1475.82 143.125 1481.44 146.563 1487.07 149.063C1492.69 151.875 1498.63 153.75 1504.57 155.625C1509.88 157.5 1515.51 159.063 1521.44 160.313ZM1521.44 169.375C1515.19 167.5 1508.94 165.625 1502.69 163.75C1498.63 162.5 1494.57 161.25 1490.51 160C1488.32 164.063 1486.44 168.438 1485.82 173.125C1484.26 182.5 1486.44 192.5 1490.82 200.938C1493.01 205 1495.51 208.437 1498.94 211.562C1502.38 214.375 1506.44 216.875 1510.82 217.5C1514.26 218.125 1518.01 218.125 1521.44 216.875C1521.44 200.938 1521.44 185.313 1521.44 169.375ZM1757.59 207.5L1763.53 216.25L1716.97 247.813L1685.41 219.375L1696.03 208.75V131.875L1673.53 112.5L1660.09 123.125V208.75L1673.53 220.937L1643.53 247.813L1607.59 219.375L1619.78 208.75V125.938L1607.59 112.5L1595.72 120L1591.34 113.75L1634.78 84.0625L1658.84 110.938L1692.91 84.0625L1728.53 114.375L1741.66 103.75L1747.28 110.313L1731.97 122.813V204.375L1745.41 216.25L1757.59 207.5Z" fill="black"/>
<path d="M13.6895 353L19.5053 327.858L0 310.947L25.7684 308.711L35.7895 285L45.8105 308.711L71.5789 310.947L52.0737 327.858L57.8895 353L35.7895 339.668L13.6895 353Z" fill="black"/>
<rect x="85" y="302" width="266" height="34" fill="#CE1126"/>
<rect x="351" y="302" width="266" height="34" fill="#FCD116"/>
<rect x="617" y="302" width="265" height="34" fill="#006B3F"/>
<path d="M24.6699 447.669C20.0568 447.669 15.8449 444.861 12.9701 439.846V447H6.61875V400.201H13.0369V420.391C15.9117 415.578 20.1905 412.77 24.8036 412.77C32.5589 412.77 36.9046 420.124 36.9046 430.152C36.9046 440.248 32.492 447.669 24.6699 447.669ZM22.7979 441.986C27.3441 441.986 30.4195 437.974 30.4195 430.152C30.4195 422.464 27.4778 418.452 22.9316 418.452C18.8534 418.452 12.7695 422.865 12.7695 430.219C12.7695 437.506 18.6528 441.986 22.7979 441.986ZM43.0741 458.366V452.616H50.2946C53.7711 452.616 55.1751 452.148 56.3116 449.206L56.9802 447.535L44.077 413.572H50.9631L60.1893 439.98L69.3485 413.572H76.101L61.5932 451.88C59.7213 456.761 57.047 458.366 51.498 458.366H43.0741Z" fill="#6B6B6B"/>
<path d="M299.015 398.455C275.525 385.42 244.269 380.601 215.873 384.11C177.605 388.839 151.777 405.766 135.686 427.474C119.721 449.012 113.428 475.095 113.428 498.51C113.428 523.464 128.916 540.198 151.47 549.644C173.617 558.921 202.434 561.185 230.324 558.365C267.958 554.56 292.97 542.478 309.165 524.904C325.179 507.527 331.978 485.409 334.863 462.415C338.519 433.272 322.791 411.647 299.015 398.455Z" fill="#2FB551"/>
<path d="M169.721 428.128C178.11 428.128 184.979 429.524 190.257 432.394H190.256C195.485 435.149 199.342 438.849 201.766 443.51C204.161 448.116 205.354 453.135 205.354 458.548C205.354 463.34 204.247 468.072 202.053 472.738L202.054 472.739C199.922 477.373 196.109 481.986 190.694 486.589L178.364 497.123H206.023V516.378H142.777V501.136L143.134 500.836L162.653 484.391L164.363 482.923C168.217 479.572 171.169 476.715 173.232 474.347C175.601 471.54 177.124 469.104 177.869 467.033L177.875 467.016L177.882 467C178.734 464.87 179.147 462.857 179.147 460.954C179.147 456.702 177.88 453.737 175.512 451.843L175.498 451.831L175.483 451.819C173.146 449.804 169.672 448.72 164.907 448.719C161.966 448.719 159.163 449.109 156.495 449.884C153.821 450.66 151.321 451.78 148.994 453.245L147.96 453.896L147.523 452.755L141.239 436.308L140.945 435.539L141.643 435.1C145.584 432.626 150.062 430.847 155.065 429.756L155.069 429.755C160.123 428.672 165.008 428.128 169.721 428.128ZM259.781 429.465V516.378H235.178V455.419L222.619 462.237L221.708 462.731L221.244 461.803L212.151 443.619L211.691 442.698L212.623 442.262L239.767 429.559L239.969 429.465H259.781Z" fill="white" stroke="black" stroke-width="2.00568"/>
<path d="M290.939 470.319C287.828 470.319 284.84 469.869 281.974 468.969C279.15 468.027 276.898 466.84 275.22 465.407L278.597 457.854C279.457 458.509 280.521 459.103 281.79 459.635C283.059 460.167 284.43 460.597 285.904 460.925C287.378 461.252 288.79 461.416 290.141 461.416C292.106 461.416 293.457 461.109 294.194 460.495C294.931 459.881 295.299 459.164 295.299 458.346C295.299 457.527 294.992 456.872 294.378 456.381C293.805 455.889 292.863 455.398 291.553 454.907L286.395 453.003C283.202 451.816 280.623 450.383 278.658 448.705C276.734 446.986 275.772 444.632 275.772 441.643C275.772 438.164 277.123 435.442 279.825 433.477C282.568 431.471 286.457 430.468 291.492 430.468C294.767 430.468 297.592 430.877 299.966 431.696C302.381 432.474 304.346 433.518 305.861 434.828L302.729 442.012C301.869 441.521 300.805 441.07 299.536 440.661C298.267 440.252 296.937 439.945 295.545 439.74C294.194 439.494 292.904 439.371 291.676 439.371C289.998 439.371 288.77 439.597 287.992 440.047C287.255 440.497 286.887 441.091 286.887 441.828C286.887 442.442 287.173 443.015 287.746 443.547C288.319 444.038 289.281 444.529 290.632 445.021L295.115 446.679C299.249 448.193 302.156 449.81 303.834 451.53C305.554 453.208 306.413 455.378 306.413 458.038C306.413 461.6 305.083 464.547 302.422 466.881C299.802 469.173 295.975 470.319 290.939 470.319ZM320.837 469.767V438.88H310.705V430.713H341.407V438.88H331.275V469.767H320.837Z" fill="black"/>
<path d="M297.542 431.137C300.359 431.137 302.754 431.54 304.743 432.326L304.75 432.328L304.758 432.331C306.642 433.026 308.178 433.931 309.385 435.034L307.075 441.104C306.42 440.742 305.675 440.408 304.843 440.101C303.689 439.674 302.481 439.355 301.221 439.143C300.001 438.89 298.828 438.762 297.704 438.762C296.189 438.762 294.947 438.989 294.097 439.553L294.083 439.562C293.271 440.131 292.826 440.926 292.826 441.902C292.826 442.722 293.167 443.456 293.764 444.091L293.772 444.101L293.782 444.11C294.377 444.694 295.316 445.227 296.525 445.731V445.732L300.465 447.4L300.467 447.401C304.065 448.911 306.506 450.489 307.88 452.102L307.89 452.113C309.272 453.658 309.986 455.674 309.986 458.22C309.986 461.643 308.876 464.435 306.674 466.647C304.537 468.79 301.369 469.913 297.057 469.913C294.402 469.913 291.857 469.474 289.416 468.597C287.176 467.741 285.388 466.691 284.029 465.459L286.504 459.119C287.156 459.594 287.898 460.031 288.727 460.43C289.885 460.986 291.132 461.433 292.467 461.772C293.809 462.114 295.105 462.288 296.354 462.288C298.113 462.288 299.532 461.983 300.378 461.176C301.145 460.444 301.557 459.552 301.557 458.528C301.557 457.543 301.225 456.695 300.529 456.058C299.937 455.483 299.026 454.954 297.859 454.453L297.856 454.452L293.323 452.535C290.579 451.366 288.39 449.968 286.737 448.353C285.2 446.776 284.396 444.592 284.396 441.717C284.397 438.383 285.517 435.843 287.717 434.01L287.719 434.009C289.968 432.125 293.211 431.137 297.542 431.137ZM340.738 431.384V438.267H331.835V469.356H323.998V438.267H315.095V431.384H340.738Z" fill="white" stroke="black" stroke-width="1.33712"/>
<path d="M274.551 515.375L278.311 475.512H290.847L299.058 497.763L299.246 498.515L299.371 497.763L308.021 475.512H320.556L323.69 515.375H312.408L311.154 491.244L310.966 490.179H310.841L310.528 491.244L303.006 511.614H295.485L287.901 491.244L287.65 490.179H287.462L287.274 491.244L285.833 515.375H274.551ZM329.347 515.375V475.512H358.054V483.66H340.002V491.056H355.609V499.204H340.002V507.227H358.43V515.375H329.347ZM364.052 515.375V477.706C366.016 476.87 368.273 476.264 370.822 475.888C373.37 475.47 375.857 475.261 378.28 475.261C385.425 475.261 390.857 476.996 394.576 480.464C398.295 483.89 400.155 488.904 400.155 495.506C400.155 500.186 399.256 503.989 397.46 506.914C395.705 509.838 393.239 511.991 390.064 513.369C386.888 514.707 383.232 515.375 379.095 515.375H364.052ZM374.833 507.227H378.531C381.707 507.227 384.193 506.266 385.99 504.344C387.828 502.422 388.747 499.476 388.747 495.506C388.747 491.662 387.87 488.779 386.115 486.857C384.36 484.893 381.811 483.911 378.468 483.911C377.883 483.911 377.277 483.953 376.651 484.036C376.024 484.078 375.418 484.183 374.833 484.35V507.227ZM405.797 515.375V475.512H416.452V515.375H405.797ZM422.063 515.375L435.852 475.45H448.576L461.299 515.375H449.829L447.448 507.478H436.166L433.784 515.375H422.063ZM438.548 498.703H445.693L442.371 487.233H442.12L438.548 498.703Z" fill="black"/>
<path d="M382.021 475.93C388.717 475.93 393.696 477.635 397.072 480.941L397.075 480.944C400.447 484.206 402.184 489.022 402.184 495.507C402.184 500.111 401.341 503.785 399.709 506.576L399.705 506.582C398.203 509.211 396.138 511.181 393.501 512.505L392.973 512.758C390.048 514.051 386.662 514.707 382.798 514.707H369.142V478.148C370.856 477.428 372.813 476.891 375.021 476.549L375.032 476.547C377.424 476.135 379.754 475.93 382.021 475.93ZM448.467 476.118L460.178 514.707H450.66L448.531 507.293L448.393 506.809H436.642L436.502 507.293L434.373 514.707H424.639L437.33 476.118H448.467ZM417.703 476.18V514.707H408.894V476.18H417.703ZM362.092 476.18V482.992H344.902V491.724H359.764V498.536H344.902V507.895H362.45V514.707H336.093V476.18H362.092ZM298.287 476.18L305.938 497.951L306.108 498.67L307.419 498.62L307.527 497.932L315.581 476.18H326.432L329.316 514.707H319.93L318.767 491.212L318.765 491.172L318.759 491.134L318.579 490.068L318.485 489.51H317.294L317.157 489.999L316.862 491.049L309.866 510.946H303.649L296.597 491.053L296.369 490.033L296.252 489.51H294.972L294.878 490.068L294.699 491.134L294.693 491.17L294.691 491.206L293.354 514.707H283.974L287.435 476.18H298.287ZM382.201 483.242C381.611 483.242 381.002 483.286 380.377 483.374C379.749 483.421 379.138 483.532 378.547 483.71L378.07 483.852V507.895H382.261C385.439 507.895 388.002 506.878 389.862 504.789L389.861 504.788C391.767 502.692 392.658 499.554 392.658 495.507C392.658 491.703 391.859 488.703 390.155 486.617L389.987 486.418C388.16 484.274 385.527 483.242 382.201 483.242ZM442.174 487.043L438.772 498.512L438.518 499.372H447.096L446.862 498.525L443.698 487.055L443.563 486.564H442.316L442.174 487.043Z" fill="white" stroke="black" stroke-width="1.33712"/>
</svg>
