<svg width="856" height="353" viewBox="0 0 856 353" fill="none" xmlns="http://www.w3.org/2000/svg">
<g clip-path="url(#clip0_594_406)">
<path d="M116.807 55.4589L117.678 120.042C117.794 128.398 116.981 135.825 115.241 142.324C113.5 148.824 110.367 154.22 105.84 158.514C101.43 162.923 95.1636 166.231 87.0399 168.436C78.9163 170.758 68.4714 171.918 55.7057 171.918C53.2686 171.918 50.0772 171.802 46.1313 171.57C42.3016 171.453 38.1237 171.163 33.5977 170.7C29.1877 170.351 24.8356 169.828 20.5417 169.133C16.2477 168.552 12.534 167.798 9.40064 166.87L13.2304 119.172C20.0775 121.492 25.9962 122.943 30.9865 123.524C36.0928 124.105 40.8509 124.394 45.2609 124.394C50.9475 124.394 56.0538 123.698 60.58 122.306C65.222 120.797 68.0653 118.418 69.1098 115.168C68.0653 115.633 66.8467 116.096 65.4541 116.561C64.0614 117.025 62.0306 117.431 59.3613 117.779C56.8082 118.128 53.2685 118.302 48.7425 118.302C33.5396 118.302 22.1084 115.11 14.4489 108.728C6.9055 102.344 3.13379 93.1762 3.13379 81.2231V69.2109C3.13379 56.6775 6.03511 46.9291 11.8377 39.9659C17.6403 32.8867 27.7369 29.3471 42.1275 29.3471C50.3672 29.3471 56.8082 30.8557 61.4503 33.8732C66.0924 36.7745 68.6456 41.5907 69.1098 48.3217H70.6766C70.6766 45.6525 70.7345 42.9833 70.8506 40.3141C71.0827 37.5288 71.3148 34.8016 71.5469 32.1323H118.374C117.91 36.0782 117.504 40.0239 117.155 43.9697C116.923 47.7995 116.807 51.6292 116.807 55.4589ZM62.8429 88.7079V68.3409C62.8429 67.8763 62.6108 67.0064 62.1466 65.7299C61.7985 64.337 60.4638 63.6407 58.1428 63.6407C55.8217 63.6407 54.4291 64.337 53.9648 65.7299C53.6167 67.0064 53.4426 67.8763 53.4426 68.3409V88.7079C53.4426 89.0563 53.6167 89.9263 53.9648 91.3189C54.4291 92.7116 55.8217 93.4085 58.1428 93.4085C60.4638 93.4085 61.7985 92.7116 62.1466 91.3189C62.6108 89.9263 62.8429 89.0563 62.8429 88.7079ZM207.039 29.3471C214.003 29.3471 219.63 30.5076 223.924 32.8287C228.218 35.0337 231.468 38.1091 233.673 42.0548C235.878 46.0007 237.387 50.5267 238.199 55.633C239.011 60.6233 239.476 65.9041 239.592 71.4746V140.061H187.89V75.4784C187.89 75.1299 187.659 74.2599 187.194 72.8673C186.846 71.4746 185.511 70.7778 183.19 70.7778C180.868 70.7778 179.477 71.4746 179.012 72.8673C178.664 74.2599 178.49 75.1299 178.49 75.4784V140.061H125.57L124.874 0.101807H178.141V50.7588H179.708C180.521 43.5635 183.539 38.2251 188.761 34.7435C194.099 31.1459 200.192 29.3471 207.039 29.3471ZM352.089 140.061H307.525C307.06 137.857 306.655 135.593 306.306 133.272C306.074 130.836 305.958 127.934 305.958 124.568H304.391C304.391 127.005 303.521 129.675 301.78 132.576C300.155 135.361 297.486 137.799 293.773 139.887C290.059 141.861 285.068 142.847 278.802 142.847C270.214 142.847 263.425 141.396 258.434 138.495C253.444 135.593 249.905 131.88 247.816 127.353C245.727 122.712 244.682 117.721 244.682 112.383V104.027C244.682 92.8858 248.164 84.7623 255.127 79.6563C262.09 74.5492 273.869 71.9962 290.465 71.9962C292.787 71.9962 295.107 72.0543 297.428 72.1704C299.865 72.2865 302.419 72.4608 305.088 72.6931C305.319 70.7197 304.972 69.269 304.043 68.3409C303.231 67.4129 302.187 66.8902 300.91 66.7741C298.704 66.5418 296.558 66.3675 294.468 66.2514C292.496 66.0202 290.523 65.9041 288.551 65.9041C279.266 65.9041 271.432 67.0064 265.05 69.2109C258.782 71.4166 253.851 73.563 250.252 75.6526L247.12 38.051C257.332 35.0337 266.848 32.8287 275.668 31.436C284.604 30.0434 292.787 29.3471 300.213 29.3471C316.229 29.3471 328.589 32.5966 337.292 39.0956C346.112 45.4784 350.523 54.8207 350.523 67.1225V119.869C350.871 126.716 351.393 133.447 352.089 140.061ZM301.606 107.335V96.368C301.606 95.9034 301.374 95.0334 300.91 93.7569C300.562 92.3643 299.227 91.6674 296.906 91.6674C294.585 91.6674 293.192 92.3643 292.729 93.7569C292.38 95.0334 292.206 95.9034 292.206 96.368V107.335C292.206 107.682 292.38 108.553 292.729 109.946C293.192 111.339 294.585 112.034 296.906 112.034C299.227 112.034 300.562 111.339 300.91 109.946C301.374 108.553 301.606 107.682 301.606 107.335ZM432.63 29.3471C441.335 29.3471 448.182 30.4496 453.172 32.6546C458.163 34.8596 461.818 37.935 464.138 41.8808C466.576 45.7105 468.142 50.1786 468.839 55.2849C469.535 60.3912 469.883 65.846 469.883 71.6489V140.061L418.878 140.236V75.6526C418.878 75.3041 418.646 74.433 418.182 73.0415C417.834 71.6489 416.499 70.952 414.178 70.952C411.857 70.952 410.464 71.6489 410.001 73.0415C409.652 74.433 409.478 75.3041 409.478 75.6526V140.061H357.95V70.082C357.95 66.3675 357.95 60.9714 357.95 53.8923C358.066 46.813 357.66 39.5597 356.732 32.1323H400.948C402.341 39.4437 403.038 46.9872 403.038 54.7626H404.603C404.603 50.2366 405.532 46.0587 407.389 42.2289C409.246 38.3992 412.205 35.3238 416.267 33.0028C420.445 30.5656 425.899 29.3471 432.63 29.3471ZM582.268 140.061H537.704C537.239 137.857 536.834 135.593 536.485 133.272C536.253 130.836 536.137 127.934 536.137 124.568H534.57C534.57 127.005 533.7 129.675 531.959 132.576C530.334 135.361 527.665 137.799 523.951 139.887C520.238 141.861 515.247 142.847 508.981 142.847C500.393 142.847 493.604 141.396 488.613 138.495C483.623 135.593 480.084 131.88 477.994 127.353C475.906 122.712 474.861 117.721 474.861 112.383V104.027C474.861 92.8858 478.343 84.7623 485.306 79.6563C492.269 74.5492 504.048 71.9962 520.644 71.9962C522.965 71.9962 525.286 72.0543 527.607 72.1704C530.044 72.2865 532.598 72.4608 535.267 72.6931C535.499 70.7197 535.151 69.269 534.221 68.3409C533.41 67.4129 532.365 66.8902 531.089 66.7741C528.883 66.5418 526.737 66.3675 524.647 66.2514C522.675 66.0202 520.702 65.9041 518.729 65.9041C509.444 65.9041 501.611 67.0064 495.229 69.2109C488.961 71.4166 484.029 73.563 480.431 75.6526L477.299 38.051C487.51 35.0337 497.027 32.8287 505.847 31.436C514.784 30.0434 522.965 29.3471 530.392 29.3471C546.408 29.3471 558.768 32.5966 567.471 39.0956C576.291 45.4784 580.701 54.8207 580.701 67.1225V119.869C581.05 126.716 581.571 133.447 582.268 140.061ZM531.785 107.335V96.368C531.785 95.9034 531.552 95.0334 531.089 93.7569C530.74 92.3643 529.406 91.6674 527.085 91.6674C524.763 91.6674 523.371 92.3643 522.907 93.7569C522.559 95.0334 522.385 95.9034 522.385 96.368V107.335C522.385 107.682 522.559 108.553 522.907 109.946C523.371 111.339 524.763 112.034 527.085 112.034C529.406 112.034 530.74 111.339 531.089 109.946C531.552 108.553 531.785 107.682 531.785 107.335Z" fill="#E50914"/>
<path d="M637.272 113.601V127.527C637.272 131.938 635.473 135.709 631.876 138.843C628.279 141.976 622.534 143.542 614.642 143.542C606.867 143.542 601.122 141.918 597.408 138.668C593.695 135.419 591.838 131.589 591.838 127.179V113.427C591.838 109.017 593.695 105.187 597.408 101.938C601.122 98.6884 606.867 97.0635 614.642 97.0635C622.534 97.0635 628.279 98.6303 631.876 101.764C635.473 104.897 637.272 108.843 637.272 113.601Z" fill="#E50914"/>
<path d="M761.2 166.261H340.246C288.679 166.261 246.876 208.064 246.876 259.63C246.876 311.197 288.679 353 340.246 353H761.2C812.767 353 854.57 311.197 854.57 259.63C854.57 208.064 812.767 166.261 761.2 166.261Z" fill="#F9B300"/>
<path d="M401.731 255.924C397.258 253.223 392.489 251.239 387.425 249.973C382.361 248.624 376.284 247.694 369.195 247.188C368.604 247.103 368.013 247.061 367.422 247.061C366.916 246.977 366.409 246.935 365.903 246.935C364.131 246.935 363.244 247.652 363.244 249.087C363.244 249.931 363.708 250.522 364.636 250.86C365.65 251.113 367 251.324 368.688 251.493C371.98 251.915 375.44 252.421 379.07 253.012C382.699 253.519 386.243 254.321 389.704 255.417C393.164 256.515 396.288 258.118 399.073 260.228C401.943 262.338 404.179 265.124 405.782 268.584C407.471 272.045 408.315 276.391 408.315 281.625C408.315 287.448 406.964 292.343 404.263 296.311C401.562 300.192 397.891 303.316 393.249 305.679C388.692 307.957 383.458 309.604 377.55 310.616C371.727 311.63 365.692 312.135 359.446 312.135C352.188 312.219 344.971 311.798 337.797 310.87C330.707 310.025 324.419 308.929 318.933 307.578L322.478 263.014C324.419 264.448 326.74 266.009 329.441 267.698C332.142 269.301 335.813 270.778 340.456 272.129C345.097 273.479 351.217 274.535 358.813 275.295C359.235 275.379 359.615 275.421 359.953 275.421C360.374 275.421 360.754 275.421 361.092 275.421C362.021 275.421 362.696 275.294 363.117 275.041C363.624 274.788 363.877 274.239 363.877 273.395C363.877 272.467 363.456 271.876 362.612 271.622C361.851 271.369 360.628 271.117 358.939 270.863C354.382 270.357 349.824 269.64 345.267 268.71C340.793 267.782 336.699 266.348 332.986 264.406C329.273 262.465 326.277 259.764 323.997 256.304C321.803 252.844 320.706 248.328 320.706 242.757C320.706 234.824 322.562 228.536 326.277 223.893C330.074 219.166 335.18 215.791 341.595 213.765C348.01 211.655 355.184 210.6 363.117 210.6C369.786 210.6 376.749 211.233 384.007 212.499C391.266 213.681 398.44 215.327 405.53 217.437L401.731 255.924ZM463.579 262.761L504.978 265.166V282.637C504.978 291.752 500.842 298.884 492.572 304.033C484.384 309.181 472.948 311.756 458.262 311.756C449.737 311.756 442.184 310.616 435.6 308.338C429.017 306.059 423.741 302.767 419.775 298.463C415.808 294.074 413.444 288.798 412.684 282.637C412.431 280.358 412.221 277.362 412.051 273.648C411.883 269.85 411.798 265.715 411.798 261.242C411.798 256.768 411.883 252.674 412.051 248.961C412.221 245.247 412.431 242.25 412.684 239.972C413.444 233.726 415.808 228.451 419.775 224.147C423.741 219.757 429.017 216.423 435.6 214.145C442.184 211.782 449.737 210.6 458.262 210.6C467.883 210.6 476.155 211.782 483.076 214.145C490.081 216.509 495.483 219.884 499.281 224.273C503.08 228.578 504.978 233.81 504.978 239.972V251.493L463.579 255.924V245.669C463.579 243.39 462.44 242.25 460.16 242.25C457.882 242.25 456.742 243.39 456.742 245.669V276.433C456.742 278.713 457.882 279.852 460.16 279.852C462.44 279.852 463.579 278.713 463.579 276.433V262.761ZM601.888 283.777C600.537 292.638 595.854 299.601 587.835 304.666C579.817 309.646 569.309 312.135 556.311 312.135C543.312 312.135 532.804 309.646 524.787 304.666C516.853 299.687 512.169 292.808 510.734 284.03C510.396 281.667 510.101 278.501 509.848 274.535C509.678 270.483 509.594 266.137 509.594 261.494C509.594 257.022 509.678 252.886 509.848 249.087C510.101 245.205 510.396 242.166 510.734 239.972C512.169 230.688 516.895 223.472 524.913 218.323C532.932 213.174 543.398 210.6 556.311 210.6C569.309 210.6 579.817 213.174 587.835 218.323C595.854 223.386 600.537 230.434 601.888 239.465C602.226 241.66 602.479 244.699 602.647 248.58C602.901 252.379 603.027 256.557 603.027 261.114C603.027 265.925 602.901 270.315 602.647 274.281C602.479 278.248 602.226 281.413 601.888 283.777ZM559.729 277.952V244.783C559.729 242.504 558.589 241.364 556.311 241.364C554.032 241.364 552.892 242.504 552.892 244.783V277.952C552.892 280.232 554.032 281.371 556.311 281.371C558.589 281.371 559.729 280.232 559.729 277.952ZM648.278 310.109H608.397V212.626H666.381C671.783 212.626 676.72 213.596 681.194 215.537C685.751 217.479 689.38 220.601 692.081 224.907C694.782 229.211 696.133 234.95 696.133 242.124C696.133 244.15 695.964 246.344 695.626 248.708C695.373 251.071 694.74 253.434 693.728 255.798C692.715 258.076 691.153 260.144 689.043 262.001C687.018 263.773 684.232 265.166 680.687 266.179L700.691 310.109H656.253L649.416 284.03H648.278V310.109ZM657.013 243.77H644.859V250.606H657.393C658.068 250.606 658.786 250.395 659.545 249.973C660.389 249.552 660.81 248.666 660.81 247.315C660.81 245.88 660.347 244.951 659.418 244.53C658.489 244.023 657.688 243.77 657.013 243.77ZM743.6 271.876V277.066H782.34V310.109H703.72V212.626H780.062V241.112H743.6V246.302H776.643V271.876H743.6Z" fill="white"/>
</g>
<defs>
<clipPath id="clip0_594_406">
<rect width="855.171" height="353" fill="white"/>
</clipPath>
</defs>
</svg>
